<?xml version="1.0" encoding="UTF-8" standalone="no"?>
<!DOCTYPE svg PUBLIC "-//W3C//DTD SVG 1.1//EN" "http://www.w3.org/Graphics/SVG/1.1/DTD/svg11.dtd">
<svg version="1.1" xmlns="http://www.w3.org/2000/svg" xmlns:xlink="http://www.w3.org/1999/xlink" preserveAspectRatio="xMidYMid meet" viewBox="0 0 640 640" width="640" height="640"><defs><path d="M310.16 240.4L305.32 240.89L300.54 241.57L295.82 242.44L291.16 243.49L286.58 244.72L282.07 246.12L277.64 247.69L273.29 249.43L269.03 251.33L264.85 253.39L260.77 255.61L256.79 257.98L252.91 260.49L249.13 263.15L245.46 265.95L241.91 268.89L238.47 271.95L235.15 275.15L231.95 278.47L228.89 281.91L225.95 285.46L223.15 289.13L220.49 292.91L217.98 296.79L215.61 300.77L213.39 304.85L211.33 309.03L209.43 313.29L207.69 317.64L206.12 322.07L204.72 326.58L203.49 331.16L202.44 335.82L201.57 340.54L200.89 345.32L200.4 350.16L200.1 355.05L200 360L200.1 364.95L200.4 369.84L200.89 374.68L201.57 379.46L202.44 384.18L203.49 388.84L204.72 393.42L206.12 397.93L207.69 402.36L209.43 406.71L211.33 410.97L213.39 415.15L215.61 419.23L217.98 423.21L220.49 427.09L223.15 430.87L225.95 434.54L228.89 438.09L231.95 441.53L235.15 444.85L238.47 448.05L241.91 451.11L245.46 454.05L249.13 456.85L252.91 459.51L256.79 462.02L260.77 464.39L264.85 466.61L269.03 468.67L273.29 470.57L277.64 472.31L282.07 473.88L286.58 475.28L291.16 476.51L295.82 477.56L300.54 478.43L305.32 479.11L310.16 479.6L315.05 479.9L320 480L324.95 479.9L329.84 479.6L334.68 479.11L339.46 478.43L344.18 477.56L348.84 476.51L353.42 475.28L357.93 473.88L362.36 472.31L366.71 470.57L370.97 468.67L375.15 466.61L379.23 464.39L383.21 462.02L387.09 459.51L390.87 456.85L394.54 454.05L398.09 451.11L401.53 448.05L404.85 444.85L408.05 441.53L411.11 438.09L414.05 434.54L416.85 430.87L419.51 427.09L422.02 423.21L424.39 419.23L426.61 415.15L428.67 410.97L430.57 406.71L432.31 402.36L433.88 397.93L435.28 393.42L436.51 388.84L437.56 384.18L438.43 379.46L439.11 374.68L439.6 369.84L439.9 364.95L440 360L439.9 355.05L439.6 350.16L439.11 345.32L438.43 340.54L437.56 335.82L436.51 331.16L435.28 326.58L433.88 322.07L432.31 317.64L430.57 313.29L428.67 309.03L426.61 304.85L424.39 300.77L422.02 296.79L419.51 292.91L416.85 289.13L414.05 285.46L411.11 281.91L408.05 278.47L404.85 275.15L401.53 271.95L398.09 268.89L394.54 265.95L390.87 263.15L387.09 260.49L383.21 257.98L379.23 255.61L375.15 253.39L370.97 251.33L366.71 249.43L362.36 247.69L357.93 246.12L353.42 244.72L348.84 243.49L344.18 242.44L339.46 241.57L334.68 240.89L329.84 240.4L324.95 240.1L320 240L315.05 240.1L310.16 240.4ZM75.08 579.8L72.66 579.56L70.27 579.21L67.91 578.78L65.58 578.26L63.29 577.64L61.04 576.94L58.82 576.15L56.65 575.28L54.51 574.33L52.43 573.3L50.39 572.19L48.39 571.01L46.45 569.75L44.56 568.42L42.73 567.02L40.95 565.56L39.23 564.02L37.57 562.43L35.98 560.77L34.44 559.05L32.98 557.27L31.58 555.44L30.25 553.55L28.99 551.61L27.81 549.61L26.7 547.57L25.67 545.49L24.72 543.35L23.85 541.18L23.06 538.96L22.36 536.71L21.74 534.42L21.22 532.09L20.79 529.73L20.44 527.34L20.2 524.92L20.05 522.47L20 520L20 220L20.05 217.53L20.2 215.08L20.44 212.66L20.79 210.27L21.22 207.91L21.74 205.58L22.36 203.29L23.06 201.04L23.85 198.82L24.72 196.65L25.67 194.51L26.7 192.43L27.81 190.39L28.99 188.39L30.25 186.45L31.58 184.56L32.98 182.73L34.44 180.95L35.98 179.23L37.57 177.57L39.23 175.98L40.95 174.44L42.73 172.98L44.56 171.58L46.45 170.25L48.39 168.99L50.39 167.81L52.43 166.7L54.51 165.67L56.65 164.72L58.82 163.85L61.04 163.06L63.29 162.36L65.58 161.74L67.91 161.22L70.27 160.79L72.66 160.44L75.08 160.2L77.53 160.05L80 160L180 160L180 120L180.05 117.53L180.2 115.08L180.44 112.66L180.79 110.27L181.22 107.91L181.74 105.58L182.36 103.29L183.06 101.04L183.85 98.82L184.72 96.65L185.67 94.51L186.7 92.43L187.81 90.39L188.99 88.39L190.25 86.45L191.58 84.56L192.98 82.73L194.44 80.95L195.98 79.23L197.57 77.57L199.23 75.98L200.95 74.44L202.73 72.98L204.56 71.58L206.45 70.25L208.39 68.99L210.39 67.81L212.43 66.7L214.51 65.67L216.65 64.72L218.82 63.85L221.04 63.06L223.29 62.36L225.58 61.74L227.91 61.22L230.27 60.79L232.66 60.44L235.08 60.2L237.53 60.05L240 60L400 60L402.47 60.05L404.92 60.2L407.34 60.44L409.73 60.79L412.09 61.22L414.42 61.74L416.71 62.36L418.96 63.06L421.18 63.85L423.35 64.72L425.49 65.67L427.57 66.7L429.61 67.81L431.61 68.99L433.55 70.25L435.44 71.58L437.27 72.98L439.05 74.44L440.77 75.98L442.43 77.57L444.02 79.23L445.56 80.95L447.02 82.73L448.42 84.56L449.75 86.45L451.01 88.39L452.19 90.39L453.3 92.43L454.33 94.51L455.28 96.65L456.15 98.82L456.94 101.04L457.64 103.29L458.26 105.58L458.78 107.91L459.21 110.27L459.56 112.66L459.8 115.08L459.95 117.53L460 120L460 160L560 160L562.47 160.05L564.92 160.2L567.34 160.44L569.73 160.79L572.09 161.22L574.42 161.74L576.71 162.36L578.96 163.06L581.18 163.85L583.35 164.72L585.49 165.67L587.57 166.7L589.61 167.81L591.61 168.99L593.55 170.25L595.44 171.58L597.27 172.98L599.05 174.44L600.77 175.98L602.43 177.57L604.02 179.23L605.56 180.95L607.02 182.73L608.42 184.56L609.75 186.45L611.01 188.39L612.19 190.39L613.3 192.43L614.33 194.51L615.28 196.65L616.15 198.82L616.94 201.04L617.64 203.29L618.26 205.58L618.78 207.91L619.21 210.27L619.56 212.66L619.8 215.08L619.95 217.53L620 220L620 520L619.95 522.47L619.8 524.92L619.56 527.34L619.21 529.73L618.78 532.09L618.26 534.42L617.64 536.71L616.94 538.96L616.15 541.18L615.28 543.35L614.33 545.49L613.3 547.57L612.19 549.61L611.01 551.61L609.75 553.55L608.42 555.44L607.02 557.27L605.56 559.05L604.02 560.77L602.43 562.43L600.77 564.02L599.05 565.56L597.27 567.02L595.44 568.42L593.55 569.75L591.61 571.01L589.61 572.19L587.57 573.3L585.49 574.33L583.35 575.28L581.18 576.15L578.96 576.94L576.71 577.64L574.42 578.26L572.09 578.78L569.73 579.21L567.34 579.56L564.92 579.8L562.47 579.95L560 580L80 580L77.53 579.95L75.08 579.8Z" id="aiYDKjnjZ"></path><clipPath id="clipajzSxWfeV"><use xlink:href="#aiYDKjnjZ" opacity="1"></use></clipPath></defs><g><g><use xlink:href="#aiYDKjnjZ" opacity="1" fill="#ffffff" fill-opacity="1"></use><g clip-path="url(#clipajzSxWfeV)"><use xlink:href="#aiYDKjnjZ" opacity="1" fill-opacity="0" stroke="#000000" stroke-width="40" stroke-opacity="1"></use></g></g></g></svg>