<?xml version="1.0" encoding="UTF-8" standalone="no"?>
<!DOCTYPE svg PUBLIC "-//W3C//DTD SVG 1.1//EN" "http://www.w3.org/Graphics/SVG/1.1/DTD/svg11.dtd">
<svg version="1.1" xmlns="http://www.w3.org/2000/svg" xmlns:xlink="http://www.w3.org/1999/xlink" preserveAspectRatio="xMidYMid meet" viewBox="0 0 640 640" width="640" height="640"><defs><path d="M346.23 1.06L359.13 2.37L371.88 4.19L384.46 6.51L396.86 9.31L409.08 12.58L421.1 16.33L432.91 20.52L444.51 25.16L455.88 30.24L467.01 35.74L477.89 41.65L488.51 47.97L498.86 54.68L508.94 61.78L518.72 69.24L528.2 77.07L537.38 85.25L546.23 93.77L554.75 102.62L562.93 111.8L570.76 121.28L578.22 131.06L585.32 141.14L592.03 151.49L598.35 162.11L604.26 172.99L609.76 184.12L614.84 195.49L619.48 207.09L623.67 218.9L627.42 230.92L630.69 243.14L633.49 255.54L635.81 268.12L637.63 280.87L638.94 293.77L639.73 306.82L640 320L639.73 333.18L638.94 346.23L637.63 359.13L635.81 371.88L633.49 384.46L630.69 396.86L627.42 409.08L623.67 421.1L619.48 432.91L614.84 444.51L609.76 455.88L604.26 467.01L598.35 477.89L592.03 488.51L585.32 498.86L578.22 508.94L570.76 518.72L562.93 528.2L554.75 537.38L546.23 546.23L537.38 554.75L528.2 562.93L518.72 570.76L508.94 578.22L498.86 585.32L488.51 592.03L477.89 598.35L467.01 604.26L455.88 609.76L444.51 614.84L432.91 619.48L421.1 623.67L409.08 627.42L396.86 630.69L384.46 633.49L371.88 635.81L359.13 637.63L346.23 638.94L333.18 639.73L320 640L306.82 639.73L293.77 638.94L280.87 637.63L268.12 635.81L255.54 633.49L243.14 630.69L230.92 627.42L218.9 623.67L207.09 619.48L195.49 614.84L184.12 609.76L172.99 604.26L162.11 598.35L151.49 592.03L141.14 585.32L131.06 578.22L121.28 570.76L111.8 562.93L102.62 554.75L93.77 546.23L85.25 537.38L77.07 528.2L69.24 518.72L61.78 508.94L54.68 498.86L47.97 488.51L41.65 477.89L35.74 467.01L30.24 455.88L25.16 444.51L20.52 432.91L16.33 421.1L12.58 409.08L9.31 396.86L6.51 384.46L4.19 371.88L2.37 359.13L1.06 346.23L0.27 333.18L0 320L0.27 306.82L1.06 293.77L2.37 280.87L4.19 268.12L6.51 255.54L9.31 243.14L12.58 230.92L16.33 218.9L20.52 207.09L25.16 195.49L30.24 184.12L35.74 172.99L41.65 162.11L47.97 151.49L54.68 141.14L61.78 131.06L69.24 121.28L77.07 111.8L85.25 102.62L93.77 93.77L102.62 85.25L111.8 77.07L121.28 69.24L131.06 61.78L141.14 54.68L151.49 47.97L162.11 41.65L172.99 35.74L184.12 30.24L195.49 25.16L207.09 20.52L218.9 16.33L230.92 12.58L243.14 9.31L255.54 6.51L268.12 4.19L280.87 2.37L293.77 1.06L306.82 0.27L320 0L333.18 0.27L346.23 1.06ZM316.72 460.13L315.11 460.3L313.52 460.52L311.94 460.81L310.39 461.16L308.87 461.57L307.36 462.04L305.89 462.57L304.44 463.15L303.02 463.78L301.62 464.47L300.26 465.21L298.94 466L297.64 466.84L296.38 467.72L295.16 468.66L293.97 469.63L292.83 470.66L291.72 471.72L290.66 472.83L289.63 473.97L288.66 475.16L287.72 476.38L286.84 477.64L286 478.94L285.21 480.26L284.47 481.62L283.78 483.02L283.15 484.44L282.57 485.89L282.04 487.36L281.57 488.87L281.16 490.39L280.81 491.94L280.52 493.52L280.3 495.11L280.13 496.72L280.03 498.35L280 500L280.03 501.65L280.13 503.28L280.3 504.89L280.52 506.48L280.81 508.06L281.16 509.61L281.57 511.13L282.04 512.64L282.57 514.11L283.15 515.56L283.78 516.98L284.47 518.38L285.21 519.74L286 521.06L286.84 522.36L287.72 523.62L288.66 524.84L289.63 526.03L290.66 527.17L291.72 528.28L292.83 529.34L293.97 530.37L295.16 531.34L296.38 532.28L297.64 533.16L298.94 534L300.26 534.79L301.62 535.53L303.02 536.22L304.44 536.85L305.89 537.43L307.36 537.96L308.87 538.43L310.39 538.84L311.94 539.19L313.52 539.48L315.11 539.7L316.72 539.87L318.35 539.97L320 540L321.65 539.97L323.28 539.87L324.89 539.7L326.48 539.48L328.06 539.19L329.61 538.84L331.13 538.43L332.64 537.96L334.11 537.43L335.56 536.85L336.98 536.22L338.38 535.53L339.74 534.79L341.06 534L342.36 533.16L343.62 532.28L344.84 531.34L346.03 530.37L347.17 529.34L348.28 528.28L349.34 527.17L350.37 526.03L351.34 524.84L352.28 523.62L353.16 522.36L354 521.06L354.79 519.74L355.53 518.38L356.22 516.98L356.85 515.56L357.43 514.11L357.96 512.64L358.43 511.13L358.84 509.61L359.19 508.06L359.48 506.48L359.7 504.89L359.87 503.28L359.97 501.65L360 500L359.97 498.35L359.87 496.72L359.7 495.11L359.48 493.52L359.19 491.94L358.84 490.39L358.43 488.87L357.96 487.36L357.43 485.89L356.85 484.44L356.22 483.02L355.53 481.62L354.79 480.26L354 478.94L353.16 477.64L352.28 476.38L351.34 475.16L350.37 473.97L349.34 472.83L348.28 471.72L347.17 470.66L346.03 469.63L344.84 468.66L343.62 467.72L342.36 466.84L341.06 466L339.74 465.21L338.38 464.47L336.98 463.78L335.56 463.15L334.11 462.57L332.64 462.04L331.13 461.57L329.61 461.16L328.06 460.81L326.48 460.52L324.89 460.3L323.28 460.13L321.65 460.03L320 460L318.35 460.03L316.72 460.13ZM236.7 120.07L233.44 120.27L230.21 120.59L227.02 121.05L223.88 121.63L220.78 122.33L217.72 123.14L214.71 124.08L211.76 125.13L208.86 126.29L206.02 127.56L203.24 128.93L200.51 130.41L197.86 131.99L195.27 133.66L192.75 135.44L190.31 137.3L187.94 139.26L185.64 141.3L183.43 143.43L181.3 145.64L179.26 147.94L177.3 150.31L175.44 152.75L173.66 155.27L171.99 157.86L170.41 160.51L168.93 163.24L167.56 166.02L166.29 168.86L165.13 171.76L164.08 174.71L163.14 177.72L162.33 180.78L161.63 183.88L161.05 187.02L160.59 190.21L160.27 193.44L160.07 196.7L160 200L160 240L220 240L220 200L220.02 199.18L220.07 198.36L220.15 197.55L220.26 196.76L220.41 195.97L220.58 195.19L220.79 194.43L221.02 193.68L221.28 192.94L221.57 192.22L221.89 191.5L222.23 190.81L222.6 190.13L223 189.46L223.42 188.82L223.86 188.19L224.33 187.58L224.81 186.98L225.33 186.41L225.86 185.86L226.41 185.33L226.98 184.81L227.58 184.33L228.19 183.86L228.82 183.42L229.46 183L230.13 182.6L230.81 182.23L231.5 181.89L232.22 181.57L232.94 181.28L233.68 181.02L234.43 180.79L235.19 180.58L235.97 180.41L236.76 180.26L237.55 180.15L238.36 180.07L239.18 180.02L240 180L400 180L400.82 180.02L401.64 180.07L402.45 180.15L403.24 180.26L404.03 180.41L404.81 180.58L405.57 180.79L406.32 181.02L407.06 181.28L407.78 181.57L408.5 181.89L409.19 182.23L409.87 182.6L410.54 183L411.18 183.42L411.81 183.86L412.42 184.33L413.02 184.81L413.59 185.33L414.14 185.86L414.67 186.41L415.19 186.98L415.67 187.58L416.14 188.19L416.58 188.82L417 189.46L417.4 190.13L417.77 190.81L418.11 191.5L418.43 192.22L418.72 192.94L418.98 193.68L419.21 194.43L419.42 195.19L419.59 195.97L419.74 196.76L419.85 197.55L419.93 198.36L419.98 199.18L420 200L420 260L419.98 260.82L419.93 261.64L419.85 262.45L419.74 263.24L419.59 264.03L419.42 264.81L419.21 265.57L418.98 266.32L418.72 267.06L418.43 267.78L418.11 268.5L417.77 269.19L417.4 269.87L417 270.54L416.58 271.18L416.14 271.81L415.67 272.42L415.19 273.02L414.67 273.59L414.14 274.14L413.59 274.67L413.02 275.19L412.42 275.67L411.81 276.14L411.18 276.58L410.54 277L409.87 277.4L409.19 277.77L408.5 278.11L407.78 278.43L407.06 278.72L406.32 278.98L405.57 279.21L404.81 279.42L404.03 279.59L403.24 279.74L402.45 279.85L401.64 279.93L400.82 279.98L400 280L360 280L356.7 280.07L353.44 280.27L350.21 280.59L347.02 281.05L343.88 281.63L340.78 282.33L337.72 283.14L334.71 284.08L331.76 285.13L328.86 286.29L326.02 287.56L323.24 288.93L320.51 290.41L317.86 291.99L315.27 293.66L312.75 295.44L310.31 297.3L307.94 299.26L305.64 301.3L303.43 303.43L301.3 305.64L299.26 307.94L297.3 310.31L295.44 312.75L293.66 315.27L291.99 317.86L290.41 320.51L288.93 323.24L287.56 326.02L286.29 328.86L285.13 331.76L284.08 334.71L283.14 337.72L282.33 340.78L281.63 343.88L281.05 347.02L280.59 350.21L280.27 353.44L280.07 356.7L280 360L280 380L360 380L360 360L360.02 359.18L360.07 358.36L360.15 357.55L360.26 356.76L360.41 355.97L360.58 355.19L360.79 354.43L361.02 353.68L361.28 352.94L361.57 352.22L361.89 351.5L362.23 350.81L362.6 350.13L363 349.46L363.42 348.82L363.86 348.19L364.33 347.58L364.81 346.98L365.33 346.41L365.86 345.86L366.41 345.33L366.98 344.81L367.58 344.33L368.19 343.86L368.82 343.42L369.46 343L370.13 342.6L370.81 342.23L371.5 341.89L372.22 341.57L372.94 341.28L373.68 341.02L374.43 340.79L375.19 340.58L375.97 340.41L376.76 340.26L377.55 340.15L378.36 340.07L379.18 340.02L380 340L400 340L403.3 339.93L406.56 339.73L409.79 339.41L412.98 338.95L416.12 338.37L419.22 337.67L422.28 336.86L425.29 335.92L428.24 334.87L431.14 333.71L433.98 332.44L436.76 331.07L439.49 329.59L442.14 328.01L444.73 326.34L447.25 324.56L449.69 322.7L452.06 320.74L454.36 318.7L456.57 316.57L458.7 314.36L460.74 312.06L462.7 309.69L464.56 307.25L466.34 304.73L468.01 302.14L469.59 299.49L471.07 296.76L472.44 293.98L473.71 291.14L474.87 288.24L475.92 285.29L476.86 282.28L477.67 279.22L478.37 276.12L478.95 272.98L479.41 269.79L479.73 266.56L479.93 263.3L480 260L480 200L479.93 196.7L479.73 193.44L479.41 190.21L478.95 187.02L478.37 183.88L477.67 180.78L476.86 177.72L475.92 174.71L474.87 171.76L473.71 168.86L472.44 166.02L471.07 163.24L469.59 160.51L468.01 157.86L466.34 155.27L464.56 152.75L462.7 150.31L460.74 147.94L458.7 145.64L456.57 143.43L454.36 141.3L452.06 139.26L449.69 137.3L447.25 135.44L444.73 133.66L442.14 131.99L439.49 130.41L436.76 128.93L433.98 127.56L431.14 126.29L428.24 125.13L425.29 124.08L422.28 123.14L419.22 122.33L416.12 121.63L412.98 121.05L409.79 120.59L406.56 120.27L403.3 120.07L400 120L240 120L236.7 120.07Z" id="b4ZizE6A8L"></path><clipPath id="clipbl4J7erNg"><use xlink:href="#b4ZizE6A8L" opacity="1"></use></clipPath></defs><g><g><g><use xlink:href="#b4ZizE6A8L" opacity="1" fill="#ffffff" fill-opacity="1"></use><g clip-path="url(#clipbl4J7erNg)"><use xlink:href="#b4ZizE6A8L" opacity="1" fill-opacity="0" stroke="#666666" stroke-width="40" stroke-opacity="1"></use></g></g></g></g></svg>