<?xml version="1.0" encoding="UTF-8" standalone="no"?>
<!DOCTYPE svg PUBLIC "-//W3C//DTD SVG 1.1//EN" "http://www.w3.org/Graphics/SVG/1.1/DTD/svg11.dtd">
<svg version="1.1" xmlns="http://www.w3.org/2000/svg" xmlns:xlink="http://www.w3.org/1999/xlink" preserveAspectRatio="xMidYMid meet" viewBox="0 0 640 640" width="640" height="640"><defs><path d="M400 560C400 604.15 364.15 640 320 640C275.85 640 240 604.15 240 560C240 515.85 275.85 480 320 480C364.15 480 400 515.85 400 560Z" id="a1aLNWZxl"></path><path d="M320 440L320 400C320 400 320 400 320 400C320 355.82 355.82 320 400 320C400 320 400 320 400 320C400 320 400 320 400 320C455.23 320 500 275.23 500 220C500 220 500 220 500 220L500 160C500 160 500 160 500 160C500 104.77 455.23 60 400 60C400 60 400 60 400 60L240 60C240 60 240 60 240 60C184.77 60 140 104.77 140 160C140 160 140 160 140 160L140 200" id="b1OZDNOcC1"></path></defs><g><g><g><use xlink:href="#a1aLNWZxl" opacity="1" fill="#000000" fill-opacity="1"></use></g><g><g><use xlink:href="#b1OZDNOcC1" opacity="1" fill-opacity="0" stroke="#000000" stroke-width="120" stroke-opacity="1"></use></g></g></g></g></svg>