<?xml version="1.0" encoding="UTF-8" standalone="no"?>
<!DOCTYPE svg PUBLIC "-//W3C//DTD SVG 1.1//EN" "http://www.w3.org/Graphics/SVG/1.1/DTD/svg11.dtd">
<svg version="1.1" xmlns="http://www.w3.org/2000/svg" xmlns:xlink="http://www.w3.org/1999/xlink" preserveAspectRatio="xMidYMid meet" viewBox="0 0 640 640" width="640" height="640"><defs><path d="M320 70C320 70 320 70 320 70C165.36 70 40 195.36 40 350C40 350 40 350 40 350C40 350 40 350 40 350C40 504.64 165.36 630 320 630C320 630 320 630 320 630C320 630 320 630 320 630C474.64 630 600 504.64 600 350C600 350 600 350 600 350L480 350C480 350 480 350 480 350C480 438.37 408.37 510 320 510C320 510 320 510 320 510C320 510 320 510 320 510C231.63 510 160 438.37 160 350C160 350 160 350 160 350C160 350 160 350 160 350C160 261.63 231.63 190 320 190C320 190 320 190 320 190L320 250L460 130L320 10L320 70Z" id="kKwubAV7Y"></path><clipPath id="clipd4252PBtqF"><use xlink:href="#kKwubAV7Y" opacity="1"></use></clipPath></defs><g><g><g><use xlink:href="#kKwubAV7Y" opacity="1" fill="#ffffff" fill-opacity="1"></use><g clip-path="url(#clipd4252PBtqF)"><use xlink:href="#kKwubAV7Y" opacity="1" fill-opacity="0" stroke="#666666" stroke-width="40" stroke-opacity="1"></use></g></g></g></g></svg>