<?xml version="1.0" encoding="UTF-8" standalone="no"?>
<!DOCTYPE svg PUBLIC "-//W3C//DTD SVG 1.1//EN" "http://www.w3.org/Graphics/SVG/1.1/DTD/svg11.dtd">
<svg version="1.1" xmlns="http://www.w3.org/2000/svg" xmlns:xlink="http://www.w3.org/1999/xlink" preserveAspectRatio="xMidYMid meet" viewBox="0 0 640 640" width="640" height="640"><defs><path d="M404.92 60.2L407.34 60.44L409.73 60.79L412.09 61.22L414.42 61.74L416.71 62.36L418.96 63.06L421.18 63.85L423.35 64.72L425.49 65.67L427.57 66.7L429.61 67.81L431.61 68.99L433.55 70.25L435.44 71.58L437.27 72.98L439.05 74.44L440.77 75.98L442.43 77.57L444.02 79.23L445.56 80.95L447.02 82.73L448.42 84.56L449.75 86.45L451.01 88.39L452.19 90.39L453.3 92.43L454.33 94.51L455.28 96.65L456.15 98.82L456.94 101.04L457.64 103.29L458.26 105.58L458.78 107.91L459.21 110.27L459.56 112.66L459.8 115.08L459.95 117.53L460 120L460 160L560 160L562.47 160.05L564.92 160.2L567.34 160.44L569.73 160.79L572.09 161.22L574.42 161.74L576.71 162.36L578.96 163.06L581.18 163.85L583.35 164.72L585.49 165.67L587.57 166.7L589.61 167.81L591.61 168.99L593.55 170.25L595.44 171.58L597.27 172.98L599.05 174.44L600.77 175.98L602.43 177.57L604.02 179.23L605.56 180.95L607.02 182.73L608.42 184.56L609.75 186.45L611.01 188.39L612.19 190.39L613.3 192.43L614.33 194.51L615.28 196.65L616.15 198.82L616.94 201.04L617.64 203.29L618.26 205.58L618.78 207.91L619.21 210.27L619.56 212.66L619.8 215.08L619.95 217.53L620 220L620 520L619.95 522.47L619.8 524.92L619.56 527.34L619.21 529.73L618.78 532.09L618.26 534.42L617.64 536.71L616.94 538.96L616.15 541.18L615.28 543.35L614.33 545.49L613.3 547.57L612.19 549.61L611.01 551.61L609.75 553.55L608.42 555.44L607.02 557.27L605.56 559.05L604.02 560.77L602.43 562.43L600.77 564.02L599.05 565.56L597.27 567.02L595.44 568.42L593.55 569.75L591.61 571.01L589.61 572.19L587.57 573.3L585.49 574.33L583.35 575.28L581.18 576.15L578.96 576.94L576.71 577.64L574.42 578.26L572.09 578.78L569.73 579.21L567.34 579.56L564.92 579.8L562.47 579.95L560 580L80 580L77.53 579.95L75.08 579.8L72.66 579.56L70.27 579.21L67.91 578.78L65.58 578.26L63.29 577.64L61.04 576.94L58.82 576.15L56.65 575.28L54.51 574.33L52.43 573.3L50.39 572.19L48.39 571.01L46.45 569.75L44.56 568.42L42.73 567.02L40.95 565.56L39.23 564.02L37.57 562.43L35.98 560.77L34.44 559.05L32.98 557.27L31.58 555.44L30.25 553.55L28.99 551.61L27.81 549.61L26.7 547.57L25.67 545.49L24.72 543.35L23.85 541.18L23.06 538.96L22.36 536.71L21.74 534.42L21.22 532.09L20.79 529.73L20.44 527.34L20.2 524.92L20.05 522.47L20 520L20 220L20.05 217.53L20.2 215.08L20.44 212.66L20.79 210.27L21.22 207.91L21.74 205.58L22.36 203.29L23.06 201.04L23.85 198.82L24.72 196.65L25.67 194.51L26.7 192.43L27.81 190.39L28.99 188.39L30.25 186.45L31.58 184.56L32.98 182.73L34.44 180.95L35.98 179.23L37.57 177.57L39.23 175.98L40.95 174.44L42.73 172.98L44.56 171.58L46.45 170.25L48.39 168.99L50.39 167.81L52.43 166.7L54.51 165.67L56.65 164.72L58.82 163.85L61.04 163.06L63.29 162.36L65.58 161.74L67.91 161.22L70.27 160.79L72.66 160.44L75.08 160.2L77.53 160.05L80 160L180 160L180 120L180.05 117.53L180.2 115.08L180.44 112.66L180.79 110.27L181.22 107.91L181.74 105.58L182.36 103.29L183.06 101.04L183.85 98.82L184.72 96.65L185.67 94.51L186.7 92.43L187.81 90.39L188.99 88.39L190.25 86.45L191.58 84.56L192.98 82.73L194.44 80.95L195.98 79.23L197.57 77.57L199.23 75.98L200.95 74.44L202.73 72.98L204.56 71.58L206.45 70.25L208.39 68.99L210.39 67.81L212.43 66.7L214.51 65.67L216.65 64.72L218.82 63.85L221.04 63.06L223.29 62.36L225.58 61.74L227.91 61.22L230.27 60.79L232.66 60.44L235.08 60.2L237.53 60.05L240 60L400 60L402.47 60.05L404.92 60.2ZM310.16 240.4L305.33 240.89L300.55 241.57L295.83 242.44L291.18 243.49L286.6 244.72L282.09 246.12L277.66 247.7L273.31 249.44L269.05 251.34L264.87 253.4L260.79 255.62L256.81 257.99L252.93 260.51L249.15 263.17L245.48 265.97L241.92 268.9L238.48 271.97L235.16 275.16L231.97 278.48L228.9 281.92L225.97 285.48L223.17 289.15L220.51 292.93L217.99 296.81L215.62 300.79L213.4 304.87L211.34 309.05L209.44 313.31L207.7 317.66L206.12 322.09L204.72 326.6L203.49 331.18L202.44 335.83L201.57 340.55L200.89 345.33L200.4 350.16L200.1 355.06L200 360L200.1 364.94L200.4 369.84L200.89 374.67L201.57 379.45L202.44 384.17L203.49 388.82L204.72 393.4L206.12 397.91L207.7 402.34L209.44 406.69L211.34 410.95L213.4 415.13L215.62 419.21L217.99 423.19L220.51 427.07L223.17 430.85L225.97 434.52L228.9 438.08L231.97 441.52L235.16 444.84L238.48 448.03L241.92 451.1L245.48 454.03L249.15 456.83L252.93 459.49L256.81 462.01L260.79 464.38L264.87 466.6L269.05 468.66L273.31 470.56L277.66 472.3L282.09 473.88L286.6 475.28L291.18 476.51L295.83 477.56L300.55 478.43L305.33 479.11L310.16 479.6L315.06 479.9L320 480L324.94 479.9L329.84 479.6L334.67 479.11L339.45 478.43L344.17 477.56L348.82 476.51L353.4 475.28L357.91 473.88L362.34 472.3L366.69 470.56L370.95 468.66L375.13 466.6L379.21 464.38L383.19 462.01L387.07 459.49L390.85 456.83L394.52 454.03L398.08 451.1L401.52 448.03L404.84 444.84L408.03 441.52L411.1 438.08L414.03 434.52L416.83 430.85L419.49 427.07L422.01 423.19L424.38 419.21L426.6 415.13L428.66 410.95L430.56 406.69L432.3 402.34L433.88 397.91L435.28 393.4L436.51 388.82L437.56 384.17L438.43 379.45L439.11 374.67L439.6 369.84L439.9 364.94L440 360L439.9 355.06L439.6 350.16L439.11 345.33L438.43 340.55L437.56 335.83L436.51 331.18L435.28 326.6L433.88 322.09L432.3 317.66L430.56 313.31L428.66 309.05L426.6 304.87L424.38 300.79L422.01 296.81L419.49 292.93L416.83 289.15L414.03 285.48L411.1 281.92L408.03 278.48L404.84 275.16L401.52 271.97L398.08 268.9L394.52 265.97L390.85 263.17L387.07 260.51L383.19 257.99L379.21 255.62L375.13 253.4L370.95 251.34L366.69 249.44L362.34 247.7L357.91 246.12L353.4 244.72L348.82 243.49L344.17 242.44L339.45 241.57L334.67 240.89L329.84 240.4L324.94 240.1L320 240L315.06 240.1L310.16 240.4Z" id="e1oxP7g0sf"></path><clipPath id="clipa5xAKcAv3w"><use xlink:href="#e1oxP7g0sf" opacity="1"></use></clipPath></defs><g><g><use xlink:href="#e1oxP7g0sf" opacity="1" fill="#ffffff" fill-opacity="1"></use><g clip-path="url(#clipa5xAKcAv3w)"><use xlink:href="#e1oxP7g0sf" opacity="1" fill-opacity="0" stroke="#000000" stroke-width="40" stroke-opacity="1"></use></g></g></g></svg>